<svg width="24" height="24" viewBox="0 0 24 24" fill="none" xmlns="http://www.w3.org/2000/svg">
<path d="M20.8947 6.74411C21.8067 8.28411 22.332 10.0801 22.332 12.0001C22.332 17.7068 17.7067 22.3321 12 22.3321C8.21336 22.3321 4.90403 20.2934 3.10536 17.2561L1.66803 18.1054C3.75736 21.6334 7.6027 24.0001 12 24.0001C18.628 24.0001 24 18.6281 24 12.0001C24 9.77078 23.3907 7.68278 22.332 5.89478L20.8947 6.74411Z" fill="#571AB3"/>
<path d="M1.668 12C1.668 6.29333 6.29333 1.668 12 1.668C15.7867 1.668 19.096 3.70667 20.8947 6.744L22.332 5.89467C20.2427 2.36667 16.3973 0 12 0C5.372 0 0 5.372 0 12C0 14.2293 0.609333 16.3173 1.668 18.1053L3.10533 17.256C2.19333 15.716 1.668 13.92 1.668 12Z" fill="#751AFF"/>
<path d="M12 22.3319C17.7067 22.3319 22.332 17.7066 22.332 11.9999C22.332 10.0799 21.8067 8.2839 20.8947 6.7439L3.10535 17.2559C4.90401 20.2932 8.21335 22.3319 12 22.3319Z" fill="#4400AB"/>
<path d="M12 1.66797C6.29336 1.66797 1.66803 6.2933 1.66803 12C1.66803 13.92 2.19336 15.716 3.10536 17.256L20.8947 6.74397C19.096 3.70664 15.7867 1.66797 12 1.66797Z" fill="#6600FF"/>
<path d="M19.2253 12.512L15.132 14.764L13.7453 13.896V11.9867L15.1626 12.7493L17.3666 11.4773V9.02534L15.1453 7.80268L12.9346 9.01868V15.9853L8.82265 18.2573L4.77332 16.016V11.4947L8.80132 9.23201L10.2266 9.98801V12.0387L8.71998 11.328L6.64932 12.4693V14.9893L8.80665 16.2067L11.0506 14.9867V7.98934L15.1333 5.74268L19.2266 7.97868V12.512H19.2253Z" fill="white"/>
</svg>
