<svg width="24" height="24" viewBox="0 0 24 24" fill="none" xmlns="http://www.w3.org/2000/svg">
<path d="M12 24C18.6274 24 24 18.6274 24 12C24 5.37258 18.6274 0 12 0C5.37258 0 0 5.37258 0 12C0 18.6274 5.37258 24 12 24Z" fill="#2D374B"/>
<path d="M14.2518 11.2474L15.601 9.00437L19.2376 14.554L19.2393 15.6189L19.2274 8.29026C19.2188 8.11111 19.1217 7.94722 18.9668 7.85058L12.4196 4.16068C12.2664 4.08695 12.0722 4.08773 11.9193 4.16298C11.8987 4.17314 11.8793 4.18415 11.8607 4.19616L11.8379 4.21023L5.48273 7.81852L5.45804 7.82947C5.42634 7.84377 5.3943 7.86192 5.3642 7.88304C5.24373 7.96772 5.16368 8.0929 5.1378 8.23333C5.13392 8.25462 5.13107 8.27629 5.1297 8.29813L5.13968 14.2703L8.52702 9.12631C8.95349 8.44421 9.88269 8.22451 10.7453 8.23646L11.7576 8.26266L5.79265 17.6353L6.4958 18.0319L12.5323 8.27216L15.2004 8.26266L9.17949 18.2687L11.6885 19.6826L11.9883 19.8516C12.1151 19.9021 12.2646 19.9046 12.3925 19.8594L19.0318 16.0897L17.7624 16.8103L14.2518 11.2474ZM14.7665 18.5114L12.2323 14.6145L13.7793 12.0425L17.1075 17.1822L14.7665 18.5114Z" fill="#2D374B"/>
<path d="M12.2323 14.6144L14.7665 18.5113L17.1075 17.1821L13.7793 12.0425L12.2323 14.6144Z" fill="#28A0F0"/>
<path d="M19.2393 15.619L19.2376 14.554L15.601 9.00439L14.2518 11.2474L17.7624 16.8103L19.0318 16.0897C19.1563 15.9906 19.2316 15.8452 19.2395 15.6883L19.2393 15.619Z" fill="#28A0F0"/>
<path d="M4.00006 16.6234L5.79256 17.6353L11.7576 8.26274L10.7452 8.23654C9.8826 8.22459 8.95345 8.44429 8.52693 9.12639L5.13959 14.2704L4 15.9859V16.6234H4.00006Z" fill="white"/>
<path d="M15.2003 8.26294L12.5323 8.27244L6.49579 18.0322L8.60569 19.2225L9.17947 18.269L15.2003 8.26294Z" fill="white"/>
<path d="M20.3639 8.24926C20.3416 7.70256 20.0395 7.20205 19.5662 6.91068L12.9331 3.17336C12.465 2.94238 11.8802 2.9421 11.4113 3.17319C11.3559 3.20057 4.9607 6.83449 4.9607 6.83449C4.87221 6.87605 4.78698 6.9256 4.70676 6.98179C4.28429 7.27847 4.02676 7.73942 4.00031 8.24591V15.9859L5.13989 14.2704L5.12991 8.29825C5.13128 8.27641 5.13408 8.25496 5.13801 8.23373C5.16372 8.09319 5.24383 7.96784 5.36441 7.88315C5.39451 7.86204 11.8989 4.17326 11.9195 4.16309C12.0725 4.08785 12.2667 4.08707 12.4198 4.1608L18.9671 7.8507C19.122 7.94734 19.2191 8.11123 19.2277 8.29037V15.6884C19.2197 15.8453 19.1565 15.9907 19.0319 16.0898L17.7626 16.8104L17.1077 17.1823L14.7667 18.5115L12.3926 19.8595C12.2648 19.9048 12.1153 19.9022 11.9885 19.8517L9.17965 18.2688L8.60586 19.2223L11.1301 20.6462C11.2135 20.6927 11.288 20.7339 11.349 20.7675C11.4435 20.8195 11.5079 20.8541 11.5306 20.8649C11.71 20.9503 11.9681 21 12.2007 21C12.414 21 12.622 20.9616 12.8188 20.8861L19.7143 16.9735C20.1101 16.6731 20.3429 16.22 20.3639 15.7292V8.24926Z" fill="#96BEDC"/>
</svg>
